<svg width="45" height="94" viewBox="0 0 45 94" fill="none" xmlns="http://www.w3.org/2000/svg">
<path d="M31.3497 7.944V1.48999C31.3497 1.09482 31.1928 0.715831 30.9133 0.436401C30.6339 0.156972 30.2549 0 29.8597 0H15.5128C15.1176 0 14.7386 0.156972 14.4592 0.436401C14.1797 0.715831 14.0228 1.09482 14.0228 1.48999V7.944C14.0228 8.13967 13.9842 8.33342 13.9093 8.51419C13.8344 8.69497 13.7247 8.85923 13.5863 8.99759C13.4479 9.13595 13.2837 9.24571 13.103 9.32059C12.9222 9.39547 12.7284 9.43399 12.5327 9.43399H2.04272C1.64763 9.43426 1.26881 9.59133 0.989441 9.8707C0.710069 10.1501 0.553 10.5289 0.552735 10.924V91.599C0.552603 91.7947 0.591061 91.9885 0.665894 92.1693C0.740727 92.3502 0.850506 92.5145 0.988892 92.6529C1.12728 92.7913 1.29158 92.901 1.47241 92.9759C1.65325 93.0507 1.84702 93.0891 2.04272 93.089H43.3268C43.5225 93.0891 43.7163 93.0507 43.8971 92.9759C44.0779 92.901 44.2422 92.7913 44.3806 92.6529C44.519 92.5145 44.6288 92.3502 44.7036 92.1693C44.7784 91.9885 44.8169 91.7947 44.8168 91.599V10.924C44.8165 10.5289 44.6594 10.1501 44.38 9.8707C44.1006 9.59133 43.7219 9.43426 43.3268 9.43399H32.8397C32.4445 9.43399 32.0656 9.27702 31.7861 8.99759C31.5067 8.71816 31.3497 8.33917 31.3497 7.944ZM39.6498 89.409H5.72272C5.32728 89.409 4.94807 89.2519 4.66846 88.9723C4.38884 88.6927 4.23175 88.3134 4.23175 87.918V14.608C4.23228 14.2129 4.38957 13.8342 4.66913 13.555C4.94869 13.2758 5.32763 13.119 5.72272 13.119H39.6467C40.0417 13.119 40.4206 13.2758 40.7 13.5551C40.9794 13.8343 41.1365 14.213 41.1367 14.608V87.918C41.1367 88.3132 40.9797 88.6922 40.7003 88.9716C40.4209 89.251 40.0419 89.408 39.6467 89.408L39.6498 89.409Z" fill="url(#paint0_linear_366_8877)"/>
<defs>
<linearGradient id="paint0_linear_366_8877" x1="-4618.84" y1="3672.73" x2="-4525.76" y2="3672.73" gradientUnits="userSpaceOnUse">
<stop stop-color="#BE1E2D"/>
<stop offset="0.05" stop-color="#AB353B"/>
<stop offset="0.149" stop-color="#8B5D54"/>
<stop offset="0.256" stop-color="#707F69"/>
<stop offset="0.368" stop-color="#599B7A"/>
<stop offset="0.488" stop-color="#48B088"/>
<stop offset="0.62" stop-color="#3CC091"/>
<stop offset="0.774" stop-color="#35C997"/>
<stop offset="1" stop-color="#33CC99"/>
</linearGradient>
</defs>
</svg>
