<svg width="43" height="43" viewBox="0 0 43 43" fill="none" xmlns="http://www.w3.org/2000/svg">
<path d="M31.8913 20.1294H20.9453L26.4183 10.6484L31.8913 20.1294ZM22.7183 19.1044H30.1183L26.4183 12.6964L22.7183 19.1044Z" fill="white"/>
<path d="M26.9312 14.9531H25.9082V17.0011H26.9312V14.9531Z" fill="white"/>
<path d="M26.9312 17.625H25.9082V18.497H26.9312V17.625Z" fill="white"/>
<path d="M20.6421 31.0518C19.3321 31.0517 18.0392 30.7539 16.8612 30.1809C15.6831 29.608 14.6507 28.7748 13.8417 27.7444C13.0328 26.714 12.4685 25.5133 12.1916 24.2329C11.9146 22.9525 11.9322 21.6259 12.243 20.3533C12.5538 19.0807 13.1497 17.8953 13.9856 16.8867C14.8216 15.8781 15.8759 15.0727 17.0687 14.5312C18.2615 13.9897 19.5618 13.7262 20.8714 13.7608C22.1809 13.7954 23.4655 14.1271 24.6281 14.7308L25.1021 14.9778L22.7181 19.1058H28.6441L28.7671 19.4428C29.2423 20.7493 29.3955 22.151 29.214 23.5294C29.0325 24.9077 28.5216 26.2219 27.7245 27.3609C26.9273 28.4998 25.8674 29.4299 24.6346 30.0724C23.4018 30.7149 22.0323 31.0508 20.6421 31.0518V31.0518ZM20.6421 14.7818C19.0382 14.7833 17.4757 15.2912 16.1774 16.233C14.8791 17.1749 13.9114 18.5026 13.4123 20.0269C12.9131 21.5511 12.9079 23.1941 13.3976 24.7215C13.8872 26.2488 14.8466 27.5826 16.139 28.5325C17.4313 29.4825 18.9906 30.0001 20.5945 30.0116C22.1984 30.0231 23.7649 29.5279 25.0708 28.5965C26.3766 27.6652 27.355 26.3453 27.8665 24.8251C28.378 23.305 28.3964 21.6621 27.9191 20.1308H20.9451L23.6721 15.4078C22.7163 14.9916 21.6846 14.7784 20.6421 14.7818V14.7818Z" fill="white"/>
<path d="M26.2605 21.8906H15.0215V22.9136H26.2605V21.8906Z" fill="white"/>
<path d="M17.5845 24.4531H16.5605V26.7691H17.5845V24.4531Z" fill="white"/>
<path d="M19.9625 24.4531H18.9395V26.7691H19.9625V24.4531Z" fill="white"/>
<path d="M22.3433 24.4531H21.3203V26.7691H22.3433V24.4531Z" fill="white"/>
<path d="M24.7232 24.4531H23.6992V26.7691H24.7232V24.4531Z" fill="white"/>
<path d="M17.5845 18.0391H16.5605V20.3541H17.5845V18.0391Z" fill="white"/>
<path d="M19.9625 18.0391H18.9395V20.3541H19.9625V18.0391Z" fill="white"/>
</svg>
