<svg width="25" height="21" viewBox="0 0 25 21" fill="none" xmlns="http://www.w3.org/2000/svg">
<path d="M21.9299 18.1748C21.3999 18.8208 21.0369 19.2168 20.3069 19.2168C19.5769 19.2168 19.2159 18.8168 18.6859 18.1748C18.4459 17.7453 18.0957 17.3875 17.6714 17.1384C17.247 16.8894 16.7639 16.7581 16.2719 16.7581C15.7798 16.7581 15.2967 16.8894 14.8723 17.1384C14.448 17.3875 14.0978 17.7453 13.8578 18.1748C13.3278 18.8208 12.9659 19.2168 12.2359 19.2168C11.5059 19.2168 11.1449 18.8168 10.6149 18.1748C10.3751 17.7452 10.025 17.3874 9.60068 17.1383C9.1764 16.8893 8.69334 16.7579 8.20135 16.7579C7.70937 16.7579 7.22631 16.8893 6.80203 17.1383C6.37776 17.3874 6.02763 17.7452 5.78784 18.1748C5.25784 18.8208 4.89586 19.2168 4.16586 19.2168C3.43586 19.2168 3.07385 18.8168 2.54385 18.1748C2.28669 17.7607 1.93267 17.4153 1.5123 17.1684C1.09193 16.9216 0.617821 16.7806 0.130859 16.7578V17.7808C0.860859 17.7808 1.22187 18.1808 1.75287 18.8238C1.99251 19.2534 2.34249 19.6113 2.76669 19.8604C3.19089 20.1095 3.67392 20.2409 4.16586 20.2409C4.6578 20.2409 5.1408 20.1095 5.565 19.8604C5.9892 19.6113 6.33922 19.2534 6.57886 18.8238C7.10986 18.1768 7.47087 17.7808 8.20087 17.7808C8.93087 17.7808 9.29285 18.1808 9.82285 18.8238C10.0626 19.2534 10.4128 19.6112 10.837 19.8603C11.2613 20.1094 11.7444 20.2407 12.2364 20.2407C12.7283 20.2407 13.2114 20.1094 13.6357 19.8603C14.06 19.6112 14.4101 19.2534 14.6498 18.8238C15.1798 18.1768 15.5419 17.7808 16.2719 17.7808C17.0019 17.7808 17.3639 18.1808 17.8939 18.8238C18.1336 19.2534 18.4837 19.6112 18.908 19.8603C19.3323 20.1094 19.8154 20.2407 20.3073 20.2407C20.7993 20.2407 21.2824 20.1094 21.7067 19.8603C22.131 19.6112 22.4811 19.2534 22.7209 18.8238C23.2509 18.1768 23.6139 17.7808 24.3429 17.7808V16.7578C23.8559 16.7806 23.3818 16.9216 22.9614 17.1684C22.5411 17.4153 22.187 17.7607 21.9299 18.1748Z" fill="white"/>
<path d="M14.75 12.6829L15.361 13.5048C15.6209 13.3033 15.9422 13.1974 16.271 13.2049C17.001 13.2049 17.363 13.5999 17.893 14.2469C18.1329 14.6764 18.4831 15.0342 18.9075 15.2833C19.3319 15.5323 19.815 15.6636 20.307 15.6636C20.799 15.6636 21.2822 15.5323 21.7065 15.2833C22.1309 15.0342 22.4811 14.6764 22.721 14.2469C23.251 13.5999 23.613 13.2049 24.342 13.2049V12.1799C23.855 12.2027 23.3809 12.3436 22.9606 12.5904C22.5402 12.8373 22.1862 13.1827 21.929 13.5969C21.399 14.2439 21.037 14.6399 20.307 14.6399C19.577 14.6399 19.215 14.2399 18.685 13.5969C18.4277 13.1826 18.0735 12.8372 17.6529 12.5903C17.2324 12.3435 16.7581 12.2026 16.271 12.1799C15.7221 12.1733 15.1867 12.3503 14.75 12.6829V12.6829Z" fill="white"/>
<path d="M1.75281 14.2518C1.99245 14.6814 2.34243 15.0393 2.76663 15.2884C3.19083 15.5375 3.67386 15.6688 4.1658 15.6688C4.65774 15.6688 5.14077 15.5375 5.56497 15.2884C5.98917 15.0393 6.33916 14.6814 6.5788 14.2518C7.1088 13.6048 7.47181 13.2098 8.20181 13.2098C8.53086 13.2026 8.85241 13.3085 9.11279 13.5098L9.7308 12.6938C9.2928 12.3575 8.75396 12.1792 8.20181 12.1878C7.71459 12.2106 7.24021 12.3516 6.81964 12.5986C6.39907 12.8457 6.04495 13.1913 5.78781 13.6058C5.25781 14.2528 4.89581 14.6478 4.16681 14.6478C3.43781 14.6478 3.0748 14.2478 2.5448 13.6048C2.2878 13.1907 1.93393 12.8454 1.51373 12.5985C1.09353 12.3516 0.619621 12.2107 0.132812 12.1878V13.2128C0.861812 13.2098 1.22281 13.6048 1.75281 14.2518Z" fill="white"/>
<path d="M12.2393 17.2379C12.7491 17.2419 13.2426 17.0585 13.6261 16.7226C14.0096 16.3867 14.2563 15.9216 14.3195 15.4157C14.3827 14.9099 14.2579 14.3984 13.9688 13.9785C13.6797 13.5586 13.2464 13.2594 12.7513 13.1379V9.63794H15.0883V8.61496H12.7513V6.59494H16.4143V5.57196H12.7513V3.55194H15.0883V2.52893H12.7513V0.710938H11.7273V13.1419C11.2338 13.2651 10.8026 13.5648 10.515 13.9843C10.2274 14.4038 10.1034 14.9141 10.1664 15.4188C10.2295 15.9235 10.4751 16.3877 10.857 16.7236C11.239 17.0595 11.7307 17.2439 12.2393 17.2419V17.2379ZM11.2583 14.7539C11.3381 14.5595 11.474 14.3932 11.6486 14.2762C11.8232 14.1592 12.0286 14.0967 12.2388 14.0967C12.4489 14.0967 12.6544 14.1592 12.829 14.2762C13.0036 14.3932 13.1394 14.5595 13.2193 14.7539C13.2718 14.8807 13.2986 15.0167 13.2983 15.1539C13.2983 15.4348 13.1867 15.7042 12.9881 15.9028C12.7895 16.1014 12.5201 16.213 12.2393 16.213C11.9584 16.213 11.689 16.1014 11.4904 15.9028C11.2918 15.7042 11.1803 15.4348 11.1803 15.1539C11.1803 15.0181 11.2068 14.8836 11.2583 14.7579V14.7539Z" fill="white"/>
</svg>
