<svg width="42" height="43" viewBox="0 0 42 43" fill="none" xmlns="http://www.w3.org/2000/svg">
<path d="M25.1268 22.2517L22.7598 19.8847L29.5908 13.0547L31.9578 15.4207L31.2338 16.1447L29.5908 14.5017L24.2078 19.8847L25.8508 21.5277L25.1268 22.2517Z" fill="white"/>
<path d="M26.1753 31.6599H10.9883L16.9783 25.6719L19.1943 27.8889H29.9473L26.1753 31.6599ZM13.4603 30.6369H25.7513L27.4753 28.9119H18.7703L16.9783 27.1189L13.4603 30.6369Z" fill="white"/>
<path d="M24.1237 20.5222L17.6191 27.0312L18.3435 27.7551L24.848 21.246L24.1237 20.5222Z" fill="white"/>
<path d="M29.2923 15.9164L28.5684 16.6406L29.6561 17.7279L30.38 17.0037L29.2923 15.9164Z" fill="white"/>
<path d="M27.8178 17.3931L27.0938 18.1172L28.1813 19.2047L28.9054 18.4806L27.8178 17.3931Z" fill="white"/>
<path d="M26.3432 18.8697L25.6191 19.5938L26.7067 20.6813L27.4307 19.9572L26.3432 18.8697Z" fill="white"/>
<path d="M31.0229 11.8697L30.2988 12.5938L32.3035 14.5984L33.0276 13.8743L31.0229 11.8697Z" fill="white"/>
<path d="M20.3434 21.9644H9.39844L14.8704 12.4844L20.3434 21.9644ZM11.1714 20.9394H18.5714L14.8714 14.5314L11.1714 20.9394Z" fill="white"/>
<path d="M15.3834 16.7891H14.3594V18.8361H15.3834V16.7891Z" fill="white"/>
<path d="M15.3834 19.4609H14.3594V20.3329H15.3834V19.4609Z" fill="white"/>
</svg>
