<svg width="42" height="43" viewBox="0 0 42 43" fill="none" xmlns="http://www.w3.org/2000/svg">
<path d="M10.0645 21.5945V21.7865C10.066 23.2198 10.6361 24.5939 11.6496 25.6074C12.6631 26.6209 14.0372 27.1909 15.4705 27.1925H21.0704V16.1875H15.4705C14.0371 16.1894 12.663 16.7596 11.6495 17.7733C10.6361 18.7869 10.066 20.1611 10.0645 21.5945V21.5945ZM11.0884 21.7865V21.5945C11.0898 20.4327 11.5519 19.3189 12.3734 18.4974C13.1948 17.6759 14.3087 17.2138 15.4705 17.2125H17.2985V26.1695H15.4705C14.3085 26.1682 13.1946 25.7059 12.373 24.8842C11.5515 24.0625 11.0895 22.9485 11.0884 21.7865V21.7865ZM20.0455 26.1695H18.3215V17.2125H20.0455V26.1695Z" fill="white"/>
<path d="M24.6939 15.6705L24.3438 16.6328L30.5909 18.9062L30.9411 17.944L24.6939 15.6705Z" fill="white"/>
<path d="M24.6939 20.6627L24.3438 21.625L30.5909 23.8985L30.9411 22.9363L24.6939 20.6627Z" fill="white"/>
<path d="M24.6939 25.6549L24.3438 26.6172L30.5909 28.8906L30.9411 27.9283L24.6939 25.6549Z" fill="white"/>
</svg>
