<svg width="43" height="43" viewBox="0 0 43 43" fill="none" xmlns="http://www.w3.org/2000/svg">
<path d="M10.5215 21.5945V21.7865C10.5231 23.2198 11.0932 24.5939 12.1066 25.6074C13.1201 26.6209 14.4942 27.1909 15.9275 27.1925H21.5275V16.1875H15.9275C14.4941 16.1894 13.12 16.7596 12.1066 17.7733C11.0931 18.7869 10.5231 20.1611 10.5215 21.5945V21.5945ZM11.5445 21.7865V21.5945C11.5458 20.4326 12.0081 19.3186 12.8298 18.4971C13.6515 17.6755 14.7655 17.2136 15.9275 17.2125H17.7545V26.1695H15.9275C14.7655 26.1682 13.6514 25.706 12.8297 24.8843C12.008 24.0626 11.5458 22.9486 11.5445 21.7865V21.7865ZM20.5025 26.1695H18.7785V17.2125H20.5025V26.1695Z" fill="white"/>
<path d="M32.0093 21.1797H25.3613V22.2037H32.0093V21.1797Z" fill="white"/>
<path d="M32.0093 26.1719H25.3613V27.1949H32.0093V26.1719Z" fill="white"/>
<path d="M32.0093 16.1875H25.3613V17.2115H32.0093V16.1875Z" fill="white"/>
</svg>
