<svg width="316" height="315" viewBox="0 0 316 315" fill="none" xmlns="http://www.w3.org/2000/svg">
<path d="M158.197 226.985C193.503 226.985 222.123 198.364 222.123 163.059C222.123 127.753 193.503 99.1328 158.197 99.1328C122.892 99.1328 94.2715 127.753 94.2715 163.059C94.2715 198.364 122.892 226.985 158.197 226.985Z" stroke="#707070" stroke-width="2" stroke-miterlimit="10"/>
<path d="M202.666 117.131L221.622 96.3672" stroke="#707070" stroke-width="2" stroke-miterlimit="10"/>
<path d="M145.36 195.317L145.343 194.113H145.541L148.311 191.293H149.515L146.563 194.278H146.481L145.36 195.317ZM144.453 197.625V189.183H145.426V197.625H144.453ZM148.476 197.625L146.003 194.492L146.695 193.816L149.713 197.625H148.476ZM150.767 197.625V191.293H151.707V192.283H151.789C151.921 191.945 152.134 191.682 152.428 191.495C152.722 191.306 153.075 191.211 153.488 191.211C153.905 191.211 154.253 191.306 154.531 191.495C154.811 191.682 155.029 191.945 155.186 192.283H155.252C155.414 191.956 155.657 191.696 155.982 191.504C156.306 191.308 156.695 191.211 157.148 191.211C157.714 191.211 158.177 191.388 158.537 191.743C158.897 192.094 159.077 192.643 159.077 193.387V197.625H158.104V193.387C158.104 192.92 157.977 192.586 157.721 192.386C157.466 192.185 157.165 192.085 156.818 192.085C156.373 192.085 156.028 192.219 155.784 192.489C155.539 192.755 155.417 193.093 155.417 193.503V197.625H154.427V193.288C154.427 192.928 154.311 192.639 154.077 192.419C153.844 192.196 153.543 192.085 153.174 192.085C152.922 192.085 152.685 192.152 152.465 192.287C152.248 192.421 152.072 192.608 151.938 192.847C151.806 193.084 151.74 193.357 151.74 193.668V197.625H150.767ZM163.84 188.787L161.12 198.895H160.229L162.95 188.787H163.84ZM165.966 193.816V197.625H164.994V189.183H165.966V192.283H166.049C166.197 191.956 166.42 191.696 166.717 191.504C167.016 191.308 167.415 191.211 167.912 191.211C168.344 191.211 168.721 191.297 169.046 191.471C169.37 191.641 169.621 191.903 169.8 192.258C169.981 192.61 170.072 193.058 170.072 193.602V197.625H169.099V193.668C169.099 193.165 168.969 192.776 168.708 192.501C168.449 192.224 168.091 192.085 167.632 192.085C167.313 192.085 167.027 192.152 166.774 192.287C166.524 192.421 166.326 192.618 166.181 192.876C166.038 193.135 165.966 193.448 165.966 193.816Z" fill="white"/>
<path d="M33.4688 162.508L58.1578 162.642" stroke="white" stroke-miterlimit="10"/>
<path d="M44.3535 108.234C51.8655 111.86 59.3768 115.485 66.8875 119.111" stroke="white" stroke-miterlimit="10"/>
<path d="M72.6367 69.4688C78.2814 75.6528 83.9267 81.8361 89.5727 88.0188" stroke="white" stroke-miterlimit="10"/>
<path d="M112.518 46.2031L121.56 69.3571" stroke="white" stroke-miterlimit="10"/>
<path d="M158.197 38.4531V63.1421" stroke="white" stroke-miterlimit="10"/>
<path d="M203.878 46.2031C200.865 53.9211 197.851 61.6391 194.836 69.3571" stroke="white" stroke-miterlimit="10"/>
<path d="M243.758 69.4688L226.822 88.0198" stroke="white" stroke-miterlimit="10"/>
<path d="M272.042 108.234L249.508 119.109" stroke="white" stroke-miterlimit="10"/>
<path d="M282.926 162.508L258.238 162.642" stroke="white" stroke-miterlimit="10"/>
<path d="M7.30262 155.24V166.094H5.98829V156.618H5.92469L3.27483 158.377V157.042L5.98829 155.24H7.30262ZM13.9644 166.242C13.1659 166.242 12.4857 166.025 11.924 165.59C11.3622 165.152 10.9329 164.518 10.6361 163.688C10.3394 162.854 10.191 161.847 10.191 160.667C10.191 159.494 10.3394 158.492 10.6361 157.662C10.9365 156.828 11.3675 156.192 11.9293 155.754C12.4946 155.312 13.1729 155.092 13.9644 155.092C14.7558 155.092 15.4324 155.312 15.9942 155.754C16.5595 156.192 16.9905 156.828 17.2873 157.662C17.5876 158.492 17.7378 159.494 17.7378 160.667C17.7378 161.847 17.5894 162.854 17.2926 163.688C16.9958 164.518 16.5665 165.152 16.0047 165.59C15.443 166.025 14.7628 166.242 13.9644 166.242ZM13.9644 165.076C14.7558 165.076 15.3706 164.695 15.8087 163.931C16.2468 163.168 16.4658 162.08 16.4658 160.667C16.4658 159.727 16.3651 158.927 16.1637 158.266C15.9659 157.605 15.6797 157.102 15.3052 156.756C14.9342 156.409 14.4873 156.236 13.9644 156.236C13.18 156.236 12.567 156.623 12.1254 157.397C11.6837 158.167 11.4629 159.257 11.4629 160.667C11.4629 161.607 11.5618 162.405 11.7597 163.062C11.9575 163.719 12.242 164.219 12.6129 164.562C12.9874 164.905 13.4379 165.076 13.9644 165.076Z" fill="white"/>
<path d="M15.0942 106.062V105.109L18.6769 101.187C19.0973 100.727 19.4435 100.328 19.7156 99.989C19.9876 99.6463 20.189 99.3248 20.3198 99.0245C20.454 98.7206 20.5212 98.4026 20.5212 98.0705C20.5212 97.6889 20.4293 97.3586 20.2456 97.0795C20.0654 96.8004 19.8181 96.5848 19.5036 96.4329C19.1892 96.281 18.8358 96.205 18.4437 96.205C18.0268 96.205 17.6628 96.2916 17.3519 96.4647C17.0445 96.6343 16.8061 96.8728 16.6365 97.1802C16.4704 97.4876 16.3874 97.8479 16.3874 98.2613H15.1366C15.1366 97.6254 15.2833 97.0671 15.5765 96.5866C15.8698 96.1061 16.269 95.7316 16.7743 95.4631C17.283 95.1945 17.8536 95.0603 18.4861 95.0603C19.122 95.0603 19.6856 95.1945 20.1767 95.4631C20.6678 95.7316 21.0529 96.0937 21.332 96.5495C21.6111 97.0053 21.7507 97.5123 21.7507 98.0705C21.7507 98.4698 21.6783 98.8602 21.5334 99.2418C21.3921 99.6198 21.1448 100.042 20.7914 100.508C20.4417 100.971 19.9558 101.537 19.334 102.204L16.8961 104.812V104.897H21.9415V106.062H15.0942ZM27.6705 106.211C26.872 106.211 26.1918 105.994 25.6301 105.559C25.0683 105.121 24.639 104.487 24.3422 103.656C24.0455 102.823 23.8971 101.816 23.8971 100.636C23.8971 99.4626 24.0455 98.4609 24.3422 97.6307C24.6426 96.7968 25.0736 96.1609 25.6354 95.7228C26.2007 95.2811 26.879 95.0603 27.6705 95.0603C28.4619 95.0603 29.1385 95.2811 29.7003 95.7228C30.2656 96.1609 30.6966 96.7968 30.9934 97.6307C31.2937 98.4609 31.4439 99.4626 31.4439 100.636C31.4439 101.816 31.2955 102.823 30.9987 103.656C30.7019 104.487 30.2726 105.121 29.7109 105.559C29.1491 105.994 28.469 106.211 27.6705 106.211ZM27.6705 105.045C28.4619 105.045 29.0767 104.663 29.5148 103.9C29.9529 103.137 30.1719 102.049 30.1719 100.636C30.1719 99.6958 30.0712 98.8955 29.8699 98.2348C29.672 97.5741 29.3858 97.0706 29.0113 96.7244C28.6403 96.3782 28.1934 96.205 27.6705 96.205C26.8861 96.205 26.2731 96.5919 25.8315 97.3657C25.3898 98.1359 25.169 99.2259 25.169 100.636C25.169 101.575 25.2679 102.374 25.4658 103.031C25.6636 103.688 25.9481 104.188 26.319 104.531C26.6936 104.874 27.144 105.045 27.6705 105.045Z" fill="white"/>
<path d="M52.4003 58.789C51.7008 58.789 51.0772 58.6689 50.5295 58.4286C49.9854 58.1884 49.5526 57.8545 49.2311 57.427C48.9131 56.9959 48.74 56.496 48.7117 55.9272H50.0472C50.0755 56.277 50.1956 56.579 50.4076 56.8334C50.6196 57.0843 50.897 57.2786 51.2397 57.4164C51.5824 57.5542 51.9622 57.6231 52.3791 57.6231C52.8455 57.6231 53.2589 57.5418 53.6193 57.3793C53.9796 57.2168 54.2623 56.9906 54.4672 56.7009C54.6721 56.4112 54.7746 56.0756 54.7746 55.694C54.7746 55.2947 54.6757 54.9432 54.4778 54.6393C54.28 54.332 53.9902 54.0917 53.6087 53.9186C53.2271 53.7455 52.7607 53.6589 52.2095 53.6589H51.3404V52.493H52.2095C52.6406 52.493 53.0186 52.4152 53.3437 52.2598C53.6723 52.1043 53.9284 51.8853 54.1121 51.6026C54.2994 51.32 54.393 50.9878 54.393 50.6063C54.393 50.2388 54.3117 49.9191 54.1492 49.647C53.9867 49.375 53.757 49.163 53.4603 49.011C53.167 48.8591 52.8208 48.7832 52.4215 48.7832C52.047 48.7832 51.6937 48.852 51.3616 48.9898C51.033 49.1241 50.7645 49.3202 50.556 49.5781C50.3476 49.8325 50.2345 50.1399 50.2168 50.5003H48.9449C48.9661 49.9314 49.1375 49.4333 49.459 49.0057C49.7805 48.5747 50.2009 48.239 50.7203 47.9988C51.2432 47.7585 51.8173 47.6384 52.4427 47.6384C53.114 47.6384 53.6899 47.7744 54.1704 48.0465C54.6509 48.315 55.0201 48.6701 55.2781 49.1117C55.536 49.5534 55.6649 50.0304 55.6649 50.5427C55.6649 51.1539 55.5042 51.675 55.1827 52.1061C54.8647 52.5371 54.4319 52.8357 53.8842 53.0017V53.0865C54.5697 53.1996 55.1049 53.4911 55.4901 53.961C55.8752 54.4274 56.0677 55.005 56.0677 55.694C56.0677 56.284 55.907 56.814 55.5854 57.2839C55.2675 57.7503 54.8329 58.1177 54.2817 58.3862C53.7305 58.6548 53.1034 58.789 52.4003 58.789ZM61.7755 58.789C60.977 58.789 60.2969 58.5717 59.7351 58.1372C59.1734 57.699 58.7441 57.0648 58.4473 56.2346C58.1505 55.4007 58.0021 54.3938 58.0021 53.2137C58.0021 52.0407 58.1505 51.0391 58.4473 50.2088C58.7476 49.375 59.1787 48.739 59.7404 48.3009C60.3057 47.8592 60.9841 47.6384 61.7755 47.6384C62.5669 47.6384 63.2435 47.8592 63.8053 48.3009C64.3706 48.739 64.8017 49.375 65.0984 50.2088C65.3988 51.0391 65.5489 52.0407 65.5489 53.2137C65.5489 54.3938 65.4005 55.4007 65.1037 56.2346C64.807 57.0648 64.3777 57.699 63.8159 58.1372C63.2541 58.5717 62.574 58.789 61.7755 58.789ZM61.7755 57.6231C62.5669 57.6231 63.1817 57.2415 63.6198 56.4783C64.0579 55.7152 64.277 54.627 64.277 53.2137C64.277 52.2739 64.1763 51.4736 63.9749 50.8129C63.777 50.1522 63.4909 49.6488 63.1163 49.3025C62.7454 48.9563 62.2984 48.7832 61.7755 48.7832C60.9912 48.7832 60.3782 49.17 59.9365 49.9438C59.4949 50.714 59.2741 51.804 59.2741 53.2137C59.2741 54.1535 59.373 54.952 59.5708 55.6092C59.7687 56.2664 60.0531 56.7663 60.4241 57.109C60.7986 57.4517 61.2491 57.6231 61.7755 57.6231Z" fill="white"/>
<path d="M96.8457 27.6257V26.5445L101.615 18.9977H102.4V20.6725H101.87L98.266 26.3749V26.4597H104.689V27.6257H96.8457ZM101.955 29.8516V27.2971V26.7936V18.9977H103.205V29.8516H101.955ZM110.216 30C109.417 30 108.737 29.7827 108.175 29.3481C107.613 28.91 107.184 28.2758 106.887 27.4455C106.591 26.6117 106.442 25.6047 106.442 24.4247C106.442 23.2516 106.591 22.25 106.887 21.4197C107.188 20.5859 107.619 19.9499 108.18 19.5118C108.746 19.0702 109.424 18.8494 110.216 18.8494C111.007 18.8494 111.684 19.0702 112.245 19.5118C112.811 19.9499 113.242 20.5859 113.538 21.4197C113.839 22.25 113.989 23.2516 113.989 24.4247C113.989 25.6047 113.841 26.6117 113.544 27.4455C113.247 28.2758 112.818 28.91 112.256 29.3481C111.694 29.7827 111.014 30 110.216 30ZM110.216 28.834C111.007 28.834 111.622 28.4524 112.06 27.6893C112.498 26.9261 112.717 25.8379 112.717 24.4247C112.717 23.4848 112.616 22.6846 112.415 22.0239C112.217 21.3632 111.931 20.8597 111.556 20.5135C111.185 20.1672 110.738 19.9941 110.216 19.9941C109.431 19.9941 108.818 20.381 108.377 21.1547C107.935 21.925 107.714 23.0149 107.714 24.4247C107.714 25.3645 107.813 26.163 108.011 26.8201C108.209 27.4773 108.493 27.9772 108.864 28.3199C109.239 28.6627 109.689 28.834 110.216 28.834Z" fill="white"/>
<path d="M154.789 21.7578C154.167 21.7578 153.607 21.6341 153.109 21.3868C152.611 21.1395 152.211 20.8003 151.911 20.3692C151.611 19.9382 151.446 19.4471 151.418 18.8959H152.69C152.74 19.387 152.962 19.7933 153.358 20.1149C153.757 20.4328 154.234 20.5918 154.789 20.5918C155.234 20.5918 155.63 20.4876 155.976 20.2791C156.326 20.0707 156.6 19.7845 156.797 19.4206C156.999 19.0531 157.099 18.638 157.099 18.1752C157.099 17.7017 156.995 17.2795 156.787 16.9085C156.582 16.534 156.299 16.239 155.939 16.0235C155.578 15.808 155.167 15.6984 154.704 15.6949C154.372 15.6914 154.031 15.7426 153.681 15.8486C153.331 15.951 153.043 16.0835 152.817 16.2461L151.588 16.0977L152.245 10.7556H157.884V11.9215H153.347L152.966 15.1225H153.029C153.252 14.9459 153.531 14.7992 153.867 14.6826C154.202 14.5661 154.552 14.5078 154.916 14.5078C155.58 14.5078 156.172 14.6667 156.691 14.9847C157.214 15.2992 157.624 15.7302 157.921 16.2779C158.221 16.8255 158.371 17.4509 158.371 18.154C158.371 18.8465 158.216 19.4648 157.905 20.0089C157.598 20.5494 157.174 20.9769 156.633 21.2914C156.093 21.6023 155.478 21.7578 154.789 21.7578ZM164.017 21.7578C163.218 21.7578 162.538 21.5405 161.977 21.1059C161.415 20.6678 160.985 20.0336 160.689 19.2033C160.392 18.3695 160.244 17.3625 160.244 16.1825C160.244 15.0095 160.392 14.0078 160.689 13.1775C160.989 12.3437 161.42 11.7077 161.982 11.2696C162.547 10.828 163.226 10.6072 164.017 10.6072C164.808 10.6072 165.485 10.828 166.047 11.2696C166.612 11.7077 167.043 12.3437 167.34 13.1775C167.64 14.0078 167.79 15.0095 167.79 16.1825C167.79 17.3625 167.642 18.3695 167.345 19.2033C167.048 20.0336 166.619 20.6678 166.057 21.1059C165.496 21.5405 164.815 21.7578 164.017 21.7578ZM164.017 20.5918C164.808 20.5918 165.423 20.2102 165.861 19.4471C166.299 18.6839 166.518 17.5957 166.518 16.1825C166.518 15.2426 166.418 14.4424 166.216 13.7817C166.018 13.121 165.732 12.6175 165.358 12.2713C164.987 11.925 164.54 11.7519 164.017 11.7519C163.233 11.7519 162.62 12.1388 162.178 12.9125C161.736 13.6828 161.515 14.7727 161.515 16.1825C161.515 17.1223 161.614 17.9208 161.812 18.5779C162.01 19.2351 162.295 19.735 162.665 20.0778C163.04 20.4205 163.49 20.5918 164.017 20.5918Z" fill="white"/>
<path d="M208.526 30C208.081 29.9929 207.636 29.9081 207.191 29.7456C206.745 29.583 206.339 29.3092 205.972 28.9241C205.604 28.5355 205.309 28.0108 205.087 27.3501C204.864 26.6859 204.753 25.852 204.753 24.8486C204.753 23.8876 204.843 23.0361 205.023 22.2942C205.203 21.5487 205.465 20.9215 205.807 20.4128C206.15 19.9005 206.564 19.5118 207.048 19.2468C207.535 18.9818 208.085 18.8494 208.696 18.8494C209.303 18.8494 209.844 18.9712 210.317 19.215C210.794 19.4553 211.183 19.7909 211.483 20.222C211.784 20.653 211.978 21.1494 212.066 21.7112H210.773C210.653 21.2236 210.42 20.8191 210.074 20.4976C209.727 20.176 209.268 20.0153 208.696 20.0153C207.855 20.0153 207.192 20.381 206.708 21.1123C206.228 21.8437 205.986 22.8701 205.982 24.1915H206.067C206.265 23.8911 206.5 23.635 206.772 23.423C207.048 23.2075 207.351 23.0414 207.684 22.9248C208.016 22.8082 208.367 22.7499 208.738 22.7499C209.36 22.7499 209.929 22.9054 210.445 23.2163C210.961 23.5237 211.374 23.9494 211.685 24.4935C211.996 25.0341 212.151 25.6542 212.151 26.3538C212.151 27.025 212.001 27.6398 211.701 28.1981C211.4 28.7528 210.978 29.1944 210.434 29.523C209.894 29.848 209.258 30.007 208.526 30ZM208.526 28.834C208.971 28.834 209.371 28.7227 209.724 28.5001C210.081 28.2775 210.362 27.979 210.567 27.6045C210.775 27.23 210.879 26.8131 210.879 26.3538C210.879 25.905 210.779 25.497 210.577 25.1295C210.379 24.7585 210.105 24.4635 209.756 24.2445C209.409 24.0254 209.014 23.9159 208.569 23.9159C208.233 23.9159 207.92 23.983 207.631 24.1173C207.341 24.248 207.086 24.4282 206.867 24.6578C206.652 24.8875 206.482 25.1507 206.359 25.4475C206.235 25.7407 206.173 26.0499 206.173 26.3749C206.173 26.806 206.274 27.2088 206.475 27.5833C206.68 27.9578 206.959 28.2599 207.313 28.4895C207.669 28.7192 208.074 28.834 208.526 28.834ZM217.776 30C216.977 30 216.297 29.7827 215.735 29.3481C215.173 28.91 214.744 28.2758 214.447 27.4455C214.15 26.6117 214.002 25.6047 214.002 24.4247C214.002 23.2516 214.15 22.25 214.447 21.4197C214.748 20.5859 215.179 19.9499 215.74 19.5118C216.306 19.0702 216.984 18.8494 217.776 18.8494C218.567 18.8494 219.244 19.0702 219.805 19.5118C220.371 19.9499 220.802 20.5859 221.098 21.4197C221.399 22.25 221.549 23.2516 221.549 24.4247C221.549 25.6047 221.401 26.6117 221.104 27.4455C220.807 28.2758 220.378 28.91 219.816 29.3481C219.254 29.7827 218.574 30 217.776 30ZM217.776 28.834C218.567 28.834 219.182 28.4524 219.62 27.6893C220.058 26.9261 220.277 25.8379 220.277 24.4247C220.277 23.4848 220.176 22.6846 219.975 22.0239C219.777 21.3632 219.491 20.8597 219.116 20.5135C218.745 20.1672 218.298 19.9941 217.776 19.9941C216.991 19.9941 216.378 20.381 215.937 21.1547C215.495 21.925 215.274 23.0149 215.274 24.4247C215.274 25.3645 215.373 26.163 215.571 26.8201C215.769 27.4773 216.053 27.9772 216.424 28.3199C216.799 28.6627 217.249 28.834 217.776 28.834Z" fill="white"/>
<path d="M253.06 58.6406L257.915 49.0375V48.9527H252.318V47.7868H259.272V49.0163L254.438 58.6406H253.06ZM264.554 58.789C263.756 58.789 263.076 58.5717 262.514 58.1372C261.952 57.699 261.523 57.0648 261.226 56.2346C260.929 55.4007 260.781 54.3938 260.781 53.2137C260.781 52.0407 260.929 51.0391 261.226 50.2088C261.526 49.375 261.957 48.739 262.519 48.3009C263.084 47.8592 263.763 47.6384 264.554 47.6384C265.346 47.6384 266.022 47.8592 266.584 48.3009C267.149 48.739 267.58 49.375 267.877 50.2088C268.177 51.0391 268.328 52.0407 268.328 53.2137C268.328 54.3938 268.179 55.4007 267.882 56.2346C267.586 57.0648 267.156 57.699 266.595 58.1372C266.033 58.5717 265.353 58.789 264.554 58.789ZM264.554 57.6231C265.346 57.6231 265.96 57.2415 266.398 56.4783C266.837 55.7152 267.056 54.627 267.056 53.2137C267.056 52.2739 266.955 51.4736 266.754 50.8129C266.556 50.1522 266.269 49.6488 265.895 49.3025C265.524 48.9563 265.077 48.7832 264.554 48.7832C263.77 48.7832 263.157 49.17 262.715 49.9438C262.273 50.714 262.053 51.804 262.053 53.2137C262.053 54.1535 262.152 54.952 262.349 55.6092C262.547 56.2664 262.832 56.7663 263.203 57.109C263.577 57.4517 264.028 57.6231 264.554 57.6231Z" fill="white"/>
<path d="M286.958 106.211C286.23 106.211 285.587 106.082 285.028 105.824C284.474 105.563 284.041 105.204 283.73 104.748C283.419 104.289 283.265 103.766 283.269 103.179C283.265 102.72 283.356 102.296 283.539 101.908C283.723 101.515 283.974 101.189 284.292 100.927C284.613 100.662 284.972 100.494 285.368 100.424V100.36C284.848 100.226 284.435 99.9343 284.128 99.4856C283.82 99.0333 283.668 98.5192 283.672 97.9433C283.668 97.3922 283.808 96.8993 284.09 96.4647C284.373 96.0301 284.762 95.6874 285.256 95.4366C285.755 95.1857 286.322 95.0603 286.958 95.0603C287.586 95.0603 288.148 95.1857 288.643 95.4366C289.138 95.6874 289.526 96.0301 289.809 96.4647C290.095 96.8993 290.24 97.3922 290.243 97.9433C290.24 98.5192 290.083 99.0333 289.772 99.4856C289.464 99.9343 289.056 100.226 288.547 100.36V100.424C288.94 100.494 289.293 100.662 289.607 100.927C289.922 101.189 290.173 101.515 290.36 101.908C290.547 102.296 290.643 102.72 290.646 103.179C290.643 103.766 290.484 104.289 290.169 104.748C289.858 105.204 289.425 105.563 288.871 105.824C288.32 106.082 287.682 106.211 286.958 106.211ZM286.958 105.045C287.449 105.045 287.873 104.965 288.23 104.806C288.586 104.647 288.862 104.423 289.056 104.133C289.251 103.844 289.35 103.505 289.353 103.116C289.35 102.706 289.244 102.344 289.035 102.029C288.827 101.715 288.542 101.468 288.182 101.287C287.825 101.107 287.417 101.017 286.958 101.017C286.495 101.017 286.081 101.107 285.717 101.287C285.357 101.468 285.073 101.715 284.864 102.029C284.659 102.344 284.559 102.706 284.562 103.116C284.559 103.505 284.652 103.844 284.843 104.133C285.037 104.423 285.315 104.647 285.675 104.806C286.035 104.965 286.463 105.045 286.958 105.045ZM286.958 99.8936C287.346 99.8936 287.691 99.8159 287.991 99.6604C288.295 99.505 288.533 99.2877 288.706 99.0086C288.88 98.7295 288.968 98.4026 288.971 98.0281C288.968 97.6607 288.881 97.3409 288.712 97.0689C288.542 96.7933 288.307 96.5813 288.007 96.4329C287.707 96.281 287.357 96.205 286.958 96.205C286.551 96.205 286.196 96.281 285.892 96.4329C285.588 96.5813 285.354 96.7933 285.187 97.0689C285.021 97.3409 284.94 97.6607 284.944 98.0281C284.94 98.4026 285.023 98.7295 285.193 99.0086C285.366 99.2877 285.604 99.505 285.908 99.6604C286.212 99.8159 286.562 99.8936 286.958 99.8936ZM296.218 106.211C295.419 106.211 294.739 105.994 294.177 105.559C293.615 105.121 293.186 104.487 292.889 103.656C292.592 102.823 292.444 101.816 292.444 100.636C292.444 99.4626 292.592 98.4609 292.889 97.6307C293.19 96.7968 293.621 96.1609 294.182 95.7228C294.748 95.2811 295.426 95.0603 296.218 95.0603C297.009 95.0603 297.686 95.2811 298.247 95.7228C298.813 96.1609 299.244 96.7968 299.54 97.6307C299.841 98.4609 299.991 99.4626 299.991 100.636C299.991 101.816 299.843 102.823 299.546 103.656C299.249 104.487 298.82 105.121 298.258 105.559C297.696 105.994 297.016 106.211 296.218 106.211ZM296.218 105.045C297.009 105.045 297.624 104.663 298.062 103.9C298.5 103.137 298.719 102.049 298.719 100.636C298.719 99.6958 298.618 98.8955 298.417 98.2348C298.219 97.5741 297.933 97.0706 297.558 96.7244C297.187 96.3782 296.74 96.205 296.218 96.205C295.433 96.205 294.82 96.5919 294.379 97.3657C293.937 98.1359 293.716 99.2259 293.716 100.636C293.716 101.575 293.815 102.374 294.013 103.031C294.211 103.688 294.495 104.188 294.866 104.531C295.241 104.874 295.691 105.045 296.218 105.045Z" fill="white"/>
<path d="M299.628 155.092C300.073 155.095 300.518 155.18 300.963 155.346C301.408 155.512 301.815 155.788 302.182 156.173C302.55 156.554 302.845 157.075 303.067 157.736C303.29 158.397 303.401 159.225 303.401 160.222C303.401 161.186 303.309 162.043 303.126 162.792C302.945 163.538 302.684 164.166 302.341 164.679C302.002 165.191 301.589 165.58 301.101 165.845C300.617 166.11 300.069 166.242 299.458 166.242C298.85 166.242 298.308 166.122 297.831 165.882C297.358 165.638 296.969 165.301 296.665 164.87C296.365 164.435 296.172 163.931 296.088 163.359H297.381C297.497 163.857 297.729 164.269 298.075 164.594C298.425 164.915 298.886 165.076 299.458 165.076C300.296 165.076 300.956 164.711 301.44 163.979C301.928 163.248 302.172 162.214 302.172 160.879H302.087C301.889 161.176 301.654 161.432 301.382 161.647C301.11 161.863 300.808 162.029 300.476 162.145C300.144 162.262 299.79 162.32 299.416 162.32C298.794 162.32 298.223 162.167 297.704 161.859C297.188 161.548 296.775 161.123 296.464 160.582C296.156 160.038 296.003 159.416 296.003 158.717C296.003 158.052 296.151 157.445 296.448 156.893C296.748 156.339 297.169 155.897 297.709 155.569C298.253 155.24 298.893 155.081 299.628 155.092ZM299.628 156.257C299.183 156.257 298.782 156.369 298.425 156.591C298.071 156.81 297.791 157.107 297.582 157.482C297.377 157.853 297.275 158.264 297.275 158.717C297.275 159.169 297.374 159.58 297.571 159.951C297.773 160.319 298.047 160.612 298.393 160.831C298.743 161.047 299.14 161.154 299.585 161.154C299.921 161.154 300.234 161.089 300.523 160.958C300.813 160.824 301.066 160.642 301.281 160.412C301.5 160.179 301.672 159.916 301.795 159.623C301.919 159.326 301.981 159.017 301.981 158.695C301.981 158.271 301.878 157.874 301.673 157.503C301.472 157.132 301.193 156.832 300.836 156.602C300.483 156.372 300.08 156.257 299.628 156.257ZM309.026 166.242C308.227 166.242 307.547 166.025 306.985 165.59C306.423 165.152 305.994 164.518 305.697 163.688C305.4 162.854 305.252 161.847 305.252 160.667C305.252 159.494 305.4 158.492 305.697 157.662C305.998 156.828 306.429 156.192 306.99 155.754C307.556 155.312 308.234 155.092 309.026 155.092C309.817 155.092 310.494 155.312 311.055 155.754C311.621 156.192 312.052 156.828 312.348 157.662C312.649 158.492 312.799 159.494 312.799 160.667C312.799 161.847 312.651 162.854 312.354 163.688C312.057 164.518 311.628 165.152 311.066 165.59C310.504 166.025 309.824 166.242 309.026 166.242ZM309.026 165.076C309.817 165.076 310.432 164.695 310.87 163.931C311.308 163.168 311.527 162.08 311.527 160.667C311.527 159.727 311.426 158.927 311.225 158.266C311.027 157.605 310.741 157.102 310.366 156.756C309.995 156.409 309.548 156.236 309.026 156.236C308.241 156.236 307.628 156.623 307.187 157.397C306.745 158.167 306.524 159.257 306.524 160.667C306.524 161.607 306.623 162.405 306.821 163.062C307.019 163.719 307.303 164.219 307.674 164.562C308.049 164.905 308.499 165.076 309.026 165.076Z" fill="white"/>
<path d="M291.664 209.724V220.578H290.35V211.102H290.286L287.636 212.862V211.526L290.35 209.724H291.664ZM298.326 220.727C297.527 220.727 296.847 220.509 296.285 220.075C295.724 219.637 295.294 219.002 294.997 218.172C294.701 217.338 294.552 216.331 294.552 215.151C294.552 213.978 294.701 212.977 294.997 212.146C295.298 211.312 295.729 210.676 296.291 210.238C296.856 209.797 297.534 209.576 298.326 209.576C299.117 209.576 299.794 209.797 300.355 210.238C300.921 210.676 301.352 211.312 301.649 212.146C301.949 212.977 302.099 213.978 302.099 215.151C302.099 216.331 301.951 217.338 301.654 218.172C301.357 219.002 300.928 219.637 300.366 220.075C299.804 220.509 299.124 220.727 298.326 220.727ZM298.326 219.561C299.117 219.561 299.732 219.179 300.17 218.416C300.608 217.653 300.827 216.564 300.827 215.151C300.827 214.211 300.726 213.411 300.525 212.75C300.327 212.09 300.041 211.586 299.667 211.24C299.296 210.894 298.849 210.721 298.326 210.721C297.541 210.721 296.928 211.108 296.487 211.881C296.045 212.652 295.824 213.741 295.824 215.151C295.824 216.091 295.923 216.89 296.121 217.547C296.319 218.204 296.603 218.704 296.974 219.047C297.349 219.389 297.799 219.561 298.326 219.561ZM307.653 220.727C306.855 220.727 306.175 220.509 305.613 220.075C305.051 219.637 304.622 219.002 304.325 218.172C304.028 217.338 303.88 216.331 303.88 215.151C303.88 213.978 304.028 212.977 304.325 212.146C304.625 211.312 305.056 210.676 305.618 210.238C306.183 209.797 306.862 209.576 307.653 209.576C308.445 209.576 309.121 209.797 309.683 210.238C310.248 210.676 310.679 211.312 310.976 212.146C311.276 212.977 311.427 213.978 311.427 215.151C311.427 216.331 311.278 217.338 310.981 218.172C310.685 219.002 310.255 219.637 309.694 220.075C309.132 220.509 308.452 220.727 307.653 220.727ZM307.653 219.561C308.445 219.561 309.059 219.179 309.497 218.416C309.936 217.653 310.155 216.564 310.155 215.151C310.155 214.211 310.054 213.411 309.853 212.75C309.655 212.09 309.369 211.586 308.994 211.24C308.623 210.894 308.176 210.721 307.653 210.721C306.869 210.721 306.256 211.108 305.814 211.881C305.373 212.652 305.152 213.741 305.152 215.151C305.152 216.091 305.251 216.89 305.449 217.547C305.646 218.204 305.931 218.704 306.302 219.047C306.676 219.389 307.127 219.561 307.653 219.561Z" fill="white"/>
<path d="M17.7555 220.727C16.9571 220.727 16.2769 220.509 15.7152 220.075C15.1534 219.637 14.7241 219.002 14.4273 218.172C14.1305 217.338 13.9821 216.331 13.9821 215.151C13.9821 213.978 14.1305 212.977 14.4273 212.146C14.7276 211.312 15.1587 210.676 15.7205 210.238C16.2858 209.797 16.9641 209.576 17.7555 209.576C18.547 209.576 19.2236 209.797 19.7853 210.238C20.3506 210.676 20.7817 211.312 21.0785 212.146C21.3788 212.977 21.5289 213.978 21.5289 215.151C21.5289 216.331 21.3806 217.338 21.0838 218.172C20.787 219.002 20.3577 219.637 19.7959 220.075C19.2342 220.509 18.554 220.727 17.7555 220.727ZM17.7555 219.561C18.547 219.561 19.1617 219.179 19.5998 218.416C20.038 217.653 20.257 216.564 20.257 215.151C20.257 214.211 20.1563 213.411 19.9549 212.75C19.7571 212.09 19.4709 211.586 19.0964 211.24C18.7254 210.894 18.2785 210.721 17.7555 210.721C16.9712 210.721 16.3582 211.108 15.9165 211.881C15.4749 212.652 15.2541 213.741 15.2541 215.151C15.2541 216.091 15.353 216.89 15.5509 217.547C15.7487 218.204 16.0331 218.704 16.4041 219.047C16.7786 219.389 17.2291 219.561 17.7555 219.561Z" fill="white"/>
<path d="M289.799 162.38C289.828 182.022 285.444 201.42 276.972 219.141L242.613 202.558C249.387 188.31 252.444 172.58 251.501 156.832C250.557 141.085 245.643 125.832 237.215 112.495C228.788 99.1588 217.122 88.1723 203.305 80.5594C189.487 72.9465 173.968 68.9549 158.192 68.9565C142.416 68.9581 126.897 72.9528 113.081 80.5685C99.2648 88.1842 87.6012 99.1731 79.1767 112.511C70.7522 125.85 65.8409 141.103 64.9004 156.851C63.9598 172.599 67.0206 188.329 73.7976 202.575L39.4297 219.166C30.9079 201.341 26.5083 181.827 26.557 162.069C26.6058 142.312 31.1018 122.82 39.7115 105.037C48.3211 87.2547 60.8236 71.6386 76.2917 59.347C91.7597 47.0554 109.796 38.4037 129.064 34.0336C148.332 29.6635 168.336 29.6871 187.594 34.1026C206.851 38.5182 224.867 47.2124 240.306 59.5405C255.746 71.8685 268.211 87.5141 276.779 105.317C285.346 123.12 289.796 142.623 289.799 162.38V162.38Z" stroke="#707070" stroke-width="2" stroke-miterlimit="10"/>
</svg>
